<?xml version="1.0" encoding="utf-8"?>
<!-- Generator: Adobe Illustrator 27.3.1, SVG Export Plug-In . SVG Version: 6.00 Build 0)  -->
<svg version="1.1" id="Layer_1" xmlns="http://www.w3.org/2000/svg" xmlns:xlink="http://www.w3.org/1999/xlink" x="0px" y="0px"
	 viewBox="0 0 500 500" style="enable-background:new 0 0 500 500;" xml:space="preserve">
<g>
	<path d="M493,232.1c-2.9,16-7.7,31.4-14.3,46.3c-12.6,28.7-30,54.3-51.3,77.1c-25.6,27.3-69.5,31.7-103.5,11.1
		c-10.4-6.3-18.8-14.8-27.1-23.4c-10.4-10.8-21.1-21.3-30.6-32.8c-18.5-22.4-47-24.1-69.5-13.5c-4.7,2.2-9.2,4.8-13.5,7.7
		c-17.9,12-35.9,23.9-53.9,35.8c-30.2,19.9-66.5,9.3-81.1-23.7c-10.6-24-21.1-48.1-31.7-72.1c-3.5-8-5.5-16.3-7.5-24.7
		c0-4.7,0-9.5,0-14.2c2.5-13,7.9-24.7,16.7-34.8c5.4-6.2,12-11.1,17.8-16.8c31.2-30.4,62.4-60.9,93.6-91.3
		c4.4-4.3,8.9-8.4,14.2-11.7c10-6.1,20.2-6.5,30.4-0.6c3.4,2,6.6,4.3,9.7,6.7c5.9,4.6,6.6,4.7,11.1-1.6c5.9-8.2,11.9-16.3,17.3-24.7
		c6.5-10.2,14.1-18.8,26.5-21.7c5,0,10.1,0,15.1,0c1,0.3,2.1,0.7,3.1,0.8c10.9,1.6,21.8,3,32.7,4.7c11.6,1.8,16.5,10.8,11.6,21.5
		c-3.6,7.7-7.3,15.3-11,23c-1.2,2.5-1.5,4.4,1.1,6.5c12.5,10,24.9,20.2,37.4,30.4c3.1,2.6,6.6,2.7,10.2,1.2c3.6-1.5,3.8-4.5,3.8-7.9
		c-0.1-16.1-0.2-32.1-0.1-48.2c0.1-9.3,7.7-15.6,16.7-14c4.7,0.8,7.7,3.9,10.3,7.6c15,21.6,30.1,43.1,45.2,64.6
		c16,22.8,31.9,45.7,48,68.5c10.6,15,19,31,22.6,49.2C493,222,493,227.1,493,232.1z M379.3,87.1c-0.5,0.7-0.6,0.8-0.6,0.9
		c-0.1,0.6-0.1,1.3-0.1,1.9c0.1,15-6.2,26.3-19.9,32.6c-14.2,6.6-27.9,5.1-40.3-4.8c-12.8-10.2-25.4-20.7-38.1-31
		c-7.6-6.1-11.7-13.9-12-23.6c-0.2-7.1,2.2-13.6,5.6-19.7c1.5-2.6,1.4-3.8-2-4.1c-4.7-0.4-9.4-1-14-1.8c-5.6-1-9.3,0.9-12.5,5.8
		c-7,11.2-14.5,22.1-22.8,32.5c-7.3,9.2-16.8,13.4-28.5,12.7c-8.8-0.5-15.8-5-22.1-10.7c-3.4-3-6.3-3.5-9.6,0.1
		c-2.3,2.5-5.1,4.7-7.6,7.1c-34.5,33.1-67.9,67.5-103.3,99.8c-7,6.4-12.4,13.9-13.8,23.6c-1.3,8.9,1.4,17.1,4.9,25.1
		C53,257.3,63.4,281,73.9,304.8c7.8,17.6,24.2,22.4,40.3,11.7c12.5-8.3,24.9-16.6,37.4-24.8c11.6-7.6,22.7-15.9,35.5-21.5
		c32.8-14.3,73.5-10.1,99.1,20.2c6.9,8.2,14.4,15.9,21.8,23.6c8.5,8.8,16.5,18.3,26.4,25.6c23.2,16.9,55,15.3,73-4.3
		c24.1-26.3,42.7-55.9,53.6-90.2c5.5-17.2,4.2-32.9-5.5-48.3c-9.3-14.8-19.7-28.9-29.6-43.2C410.5,131.5,395,109.5,379.3,87.1z"/>
	<path d="M374.8,493c-21.9-5.2-32.7-21.9-41.6-40.4c-4-8.4-6.9-17.2-8.9-26.3c-2.4-10.6,3.7-18.5,14.7-18.5c26.4,0,52.9,0,79.3,0
		c10.9,0,17.1,7.9,14.7,18.5c-2.7,11.9-6.8,23.2-12.7,33.9c-8.6,15.6-19.3,28.7-37.8,32.8C379.9,493,377.4,493,374.8,493z
		 M378.5,436.1c-6.1,0-12.2,0.1-18.4,0c-2.4,0-3.2,0.6-2.1,2.9c3.6,7.9,7.6,15.5,14,21.6c5.2,4.9,8.1,4.8,13.3-0.1
		c6.4-6.1,10.3-13.8,13.9-21.6c1.2-2.6-0.3-2.8-2.3-2.8C390.8,436.1,384.6,436.1,378.5,436.1z"/>
</g>
</svg>
