<?xml version="1.0" encoding="utf-8"?>
<!-- Generator: Adobe Illustrator 25.2.0, SVG Export Plug-In . SVG Version: 6.00 Build 0)  -->
<svg version="1.1" id="Layer_1" xmlns="http://www.w3.org/2000/svg" xmlns:xlink="http://www.w3.org/1999/xlink" x="0px" y="0px"
	 viewBox="0 0 500 500" style="enable-background:new 0 0 500 500;" xml:space="preserve">
<style type="text/css">
	.st0{fill:#038EC7;}
</style>
<g>
	<path class="st0" d="M30.8,220.7c8.4-0.2,15.5,4.3,21.9,10.7c39.2,39.3,78.6,78.5,117.7,117.9c4.6,4.7,6.9,5.4,12.1,0.2
		C270.4,261.2,358.6,173.2,446.6,85c8.9-8.9,18.8-13.8,31.5-10.2c20.1,5.6,28.1,29.2,15.6,45.8c-1.9,2.6-4.2,4.8-6.5,7.1
		C391.9,223,296.7,318.2,201.5,413.5c-17.2,17.2-32.7,17.1-49.8,0C104.8,366.6,57.9,319.7,11,272.9c-8-8-12.2-17-10-28.5
		C3.6,230.3,15.5,220.6,30.8,220.7z"/>
</g>
</svg>
