<?xml version="1.0" encoding="utf-8"?>
<!-- Generator: Adobe Illustrator 27.3.1, SVG Export Plug-In . SVG Version: 6.00 Build 0)  -->
<svg version="1.1" id="Layer_1" xmlns="http://www.w3.org/2000/svg" xmlns:xlink="http://www.w3.org/1999/xlink" x="0px" y="0px"
	 viewBox="0 0 500 500" style="enable-background:new 0 0 500 500;" xml:space="preserve">
<style type="text/css">
	.st0{display:none;}
	.st1{display:inline;}
</style>
<g class="st0">
	<g class="st1">
		<path d="M474.1,378.1c-7.6,0-15.2,0.1-22.7-0.1c-3-0.1-3.6,1-3.6,3.7c0.2,6.6,0,13.1,0.1,19.7c0,2.3-0.7,3-3,3
			c-6.7-0.1-13.4-0.2-20.1,0c-2.9,0.1-3.3-1.1-3.3-3.6c0.1-6.1-0.2-12.3,0.1-18.4c0.2-3.8-1.1-4.5-4.6-4.5
			c-58.8,0.1-117.5,0.1-176.3,0c-3.2,0-4.7,0.9-6.2,3.9c-7.2,14.5-19.2,22.3-35.3,22.3s-28.1-7.7-35.3-22.2c-1.4-2.9-2.8-4-6.1-3.9
			c-42.4,0.1-84.9,0-127.3,0.2c-3.4,0-4.7-0.5-4.7-4.4c0.2-49,0.1-98,0.1-147c0-3.9,0.3-7.9,1.4-11.7c5.4-18.8,20.1-29.6,40.4-29.6
			c67.7,0,135.3,0,203,0c25.4,0,44.9,10.7,58.6,31.9c20.8,32.3,41.6,64.7,62.4,97.1c1.2,1.9,1.8,3.8,1.8,6.1
			c-0.1,8.9,0.1,17.8-0.1,26.7c-0.1,3.6,0.8,4.6,4.5,4.6c25.4-0.2,50.8-0.1,76.1-0.1C474.1,360.6,474.1,369.4,474.1,378.1z
			 M91.6,347.9c0,2.8,0.4,4.1,3.7,4c15.2-0.2,30.3-0.1,45.5,0c2.6,0,3.5-0.6,3.5-3.4c-0.1-29.9-0.1-59.8,0-89.7
			c0-2.8-0.9-3.4-3.5-3.4c-15,0.1-30,0.2-45.1,0c-3.2,0-4.2,0.7-4.1,4.1c0.2,14.9,0.1,29.7,0.1,44.6
			C91.6,318.8,91.7,333.3,91.6,347.9z M283,281.9c3.1,0,4-0.9,3.8-3.9c-0.2-6.1-0.2-12.3,0-18.4c0.1-3.2-0.7-4.2-4-4.2
			c-20,0.2-39.9,0.1-59.9,0.1c-12,0-23.9,0.1-35.9-0.1c-2.9,0-3.7,0.9-3.6,3.7c0.2,6.1,0.2,12.3,0,18.4c-0.1,3.3,0.7,4.4,4.3,4.4
			c15.9-0.2,31.8-0.1,47.7-0.1S267.2,281.8,283,281.9z M186.2,364.9c-0.1,7.1,5.8,13.1,13,13.2c7.1,0.1,13.1-5.8,13.2-13
			c0.1-7.1-5.8-13.1-13-13.2S186.2,357.7,186.2,364.9z"/>
	</g>
	<path class="st1" d="M56,138.6c3.6,3.4,6.5,5.9,9.1,8.6c4.3,4.5,4.5,9.5,0.8,13.2c-3.7,3.7-8.8,3.6-13.2-0.7
		c-7.9-7.7-15.6-15.5-23.3-23.3c-4.8-4.9-4.6-9.4,0.3-14.4c7.5-7.6,15-15.1,22.6-22.6c4.7-4.6,9.7-5,13.6-1.2
		c3.8,3.7,3.4,8.9-1.1,13.6c-2.5,2.6-5.2,5-8.8,8.4c121.4,0,241.2,0,362.1,0c-3-3.1-5.6-5.8-8.1-8.4c-4.4-4.6-4.7-9.9-0.9-13.6
		c3.8-3.6,8.7-3.3,13.2,1c7.7,7.6,15.4,15.2,22.9,23c4.9,5,4.9,9.5,0.1,14.4c-7.6,7.7-15.2,15.4-22.9,23c-4.6,4.5-9.8,4.8-13.6,0.9
		c-3.6-3.7-3.3-8.8,1-13.2c2.6-2.6,5.5-4.9,8.2-7.3c-0.2-0.4-0.5-0.8-0.7-1.2C297.3,138.6,177.4,138.6,56,138.6z"/>
</g>
<g class="st0">
	<path class="st1" d="M443.7,403.6c0,2.5,0,5,0,7.6c-0.8,2.2-1.4,4.5-2.5,6.6c-5.3,10.5-14,14.7-25.6,14.7
		c-110.5-0.1-221,0-331.6-0.1c-1.6,0-3.3,0-4.9-0.2C63.7,431,53,415.6,57.2,400.8c17.3-61.1,34.6-122.2,51.7-183.3
		c4.5-16,9.3-31.9,13.2-48.1c2.8-11.4,13.2-18.6,26.3-18.6c16.4-0.1,32.8-0.1,49.2,0c2.7,0,3.3-0.5,2-3.1
		c-4.3-8.2-6.1-17.1-5.7-26.3c1.3-34,31.4-58.6,65.1-53.5c30.8,4.7,52.1,34.9,46.2,65.4c-1.1,6-3.4,11.5-6,17.5c1.9,0,3.2,0,4.6,0
		c15.1,0,30.3,0,45.4,0c10.7,0,19.1,4.1,24.5,13.5c2.2,3.8,2.6,8.1,3.7,12.2c19.3,66.8,38.6,133.6,58,200.3
		C438.2,385.9,440.3,395,443.7,403.6z M255.9,294.3c0,9-0.2,17.9,0,26.9c0.5,15.1,8,25.5,21.9,30.4c7,2.5,14.4,2.6,21.7,2.1
		c16.8-1.2,28.3-10.9,31.2-26.8c1.8-9.7,1-19.6,0.8-29.5c-0.1-4.2-2.8-6.4-7.4-6.4c-8.5-0.1-16.9-0.1-25.4,0c-4.8,0-7.8,3.2-7.7,8.3
		c0,4.9,2.8,8.1,7.4,8.2c3.3,0.1,6.6,0.1,9.8,0c1.6,0,2.3,0.4,2.3,2.1c-0.1,3.7,0.1,7.3-0.2,11c-1,9.7-7.3,15.1-17.1,15
		c-9.7-0.1-15.7-5.5-16.2-15.3c-0.7-17.3-0.7-34.6,0-51.8c0.3-7.6,4.4-12.7,10.7-14.4c4.2-1.1,8.5-1,12.7,0.2
		c5.1,1.5,8.1,4.9,9.2,10c0.4,1.7,0.6,3.5,0.8,5.2c0.4,2.8,1.9,4.5,4.6,5.4c2.3,0.8,4.7,0.9,7.1,0.8c6.6-0.3,9.2-2.8,9.3-9.3
		c0.2-10.5-4.1-18.9-12.9-24.6c-11-7.1-23.2-8.4-35.7-6c-16.9,3.2-26.5,14.7-27,32C255.7,276.6,255.9,285.4,255.9,294.3z M199.5,304
		c1.5,0.8,2,2.2,2.7,3.3c9.1,13.8,18.2,27.6,27.3,41.3c4,6,9,6.7,15.6,2.3c5.5-3.6,6.2-7.9,2.3-13.8c-10.6-16.1-21.1-32.3-31.8-48.3
		c-1.5-2.3-1.5-3.7,0.2-5.8c8.5-10.4,16.9-21,25.3-31.6c1.7-2.1,3.3-4.3,2.6-7.2c-1.3-5.1-5.1-7.7-9.7-9.2c-4.3-1.4-7,1.2-9.4,4.5
		c-10.3,14.2-20.7,28.3-31.1,42.4c-0.6,0.8-0.8,2.2-2.5,2c0-13.5,0-27,0-40.5c0-5.2-1.3-7-6.4-8.2c-2.8-0.7-5.7-0.7-8.6,0.1
		c-4.7,1.4-5.9,2.8-5.9,7.8c0,33.7,0,67.4,0,101c0,4.9,1.5,6.8,6.2,8.1c2.9,0.8,5.7,0.8,8.6,0c4.7-1.3,6.1-3.2,6.1-8.1
		c0-8.8,0-17.7,0-26.5c0-1.5-0.1-2.9,1-4.3C194.5,310.3,197,307.1,199.5,304z"/>
</g>
<g>
	<path d="M260.5,44c8.1,1.4,16.4,2.2,24.5,4c59.6,13.4,107,63.8,117.2,124.1c5.5,32.1-0.1,62.6-11.8,92.4
		c-13.5,34.3-32.6,65.3-54.2,95c-24,33-50.7,63.8-79.7,92.5c-5.3,5.3-7.8,5.3-13.1,0c-40.6-40.6-77.3-84.4-107-133.7
		c-16.5-27.4-30.1-56.1-37.2-87.6C84.8,166.6,114.9,98,172,65.2c20.2-11.6,41.7-18.7,64.9-20.6c0.9-0.1,1.8-0.4,2.7-0.7
		C246.5,44,253.5,44,260.5,44z M320.8,198.5c-0.1-39.1-31.7-70.9-70.4-70.9c-39.7,0-71.2,31.7-71.2,71.3
		c0.1,38.8,32.2,70.4,71.4,70.3C289.2,269.1,320.9,237.1,320.8,198.5z"/>
</g>
</svg>
